<?xml version="1.0" encoding="utf-8"?>
<svg version="1.1" baseProfile="full"  width="592" height="592" viewBox="0 0 592 592"
		 xmlns="http://www.w3.org/2000/svg" xmlns:xlink="http://www.w3.org/1999/xlink" xmlns:ev="http://www.w3.org/2001/xml-events">
<desc></desc>
<rect width="592" height="592" fill="#ffffff" cx="0" cy="0" />
<defs>
<rect id="p" width="16" height="16" />
</defs>
<g fill="#000000">
<use x="0" y="0" xlink:href="#p" />
<use x="0" y="16" xlink:href="#p" />
<use x="0" y="32" xlink:href="#p" />
<use x="0" y="48" xlink:href="#p" />
<use x="0" y="64" xlink:href="#p" />
<use x="0" y="80" xlink:href="#p" />
<use x="0" y="96" xlink:href="#p" />
<use x="0" y="128" xlink:href="#p" />
<use x="0" y="144" xlink:href="#p" />
<use x="0" y="160" xlink:href="#p" />
<use x="0" y="208" xlink:href="#p" />
<use x="0" y="240" xlink:href="#p" />
<use x="0" y="256" xlink:href="#p" />
<use x="0" y="304" xlink:href="#p" />
<use x="0" y="336" xlink:href="#p" />
<use x="0" y="480" xlink:href="#p" />
<use x="0" y="496" xlink:href="#p" />
<use x="0" y="512" xlink:href="#p" />
<use x="0" y="528" xlink:href="#p" />
<use x="0" y="544" xlink:href="#p" />
<use x="0" y="560" xlink:href="#p" />
<use x="0" y="576" xlink:href="#p" />
<use x="16" y="0" xlink:href="#p" />
<use x="16" y="96" xlink:href="#p" />
<use x="16" y="192" xlink:href="#p" />
<use x="16" y="208" xlink:href="#p" />
<use x="16" y="240" xlink:href="#p" />
<use x="16" y="256" xlink:href="#p" />
<use x="16" y="272" xlink:href="#p" />
<use x="16" y="384" xlink:href="#p" />
<use x="16" y="400" xlink:href="#p" />
<use x="16" y="432" xlink:href="#p" />
<use x="16" y="448" xlink:href="#p" />
<use x="16" y="480" xlink:href="#p" />
<use x="16" y="576" xlink:href="#p" />
<use x="32" y="0" xlink:href="#p" />
<use x="32" y="32" xlink:href="#p" />
<use x="32" y="48" xlink:href="#p" />
<use x="32" y="64" xlink:href="#p" />
<use x="32" y="96" xlink:href="#p" />
<use x="32" y="144" xlink:href="#p" />
<use x="32" y="160" xlink:href="#p" />
<use x="32" y="224" xlink:href="#p" />
<use x="32" y="256" xlink:href="#p" />
<use x="32" y="272" xlink:href="#p" />
<use x="32" y="304" xlink:href="#p" />
<use x="32" y="320" xlink:href="#p" />
<use x="32" y="352" xlink:href="#p" />
<use x="32" y="400" xlink:href="#p" />
<use x="32" y="416" xlink:href="#p" />
<use x="32" y="480" xlink:href="#p" />
<use x="32" y="512" xlink:href="#p" />
<use x="32" y="528" xlink:href="#p" />
<use x="32" y="544" xlink:href="#p" />
<use x="32" y="576" xlink:href="#p" />
<use x="48" y="0" xlink:href="#p" />
<use x="48" y="32" xlink:href="#p" />
<use x="48" y="48" xlink:href="#p" />
<use x="48" y="64" xlink:href="#p" />
<use x="48" y="96" xlink:href="#p" />
<use x="48" y="128" xlink:href="#p" />
<use x="48" y="144" xlink:href="#p" />
<use x="48" y="176" xlink:href="#p" />
<use x="48" y="224" xlink:href="#p" />
<use x="48" y="272" xlink:href="#p" />
<use x="48" y="288" xlink:href="#p" />
<use x="48" y="304" xlink:href="#p" />
<use x="48" y="336" xlink:href="#p" />
<use x="48" y="352" xlink:href="#p" />
<use x="48" y="368" xlink:href="#p" />
<use x="48" y="384" xlink:href="#p" />
<use x="48" y="432" xlink:href="#p" />
<use x="48" y="480" xlink:href="#p" />
<use x="48" y="512" xlink:href="#p" />
<use x="48" y="528" xlink:href="#p" />
<use x="48" y="544" xlink:href="#p" />
<use x="48" y="576" xlink:href="#p" />
<use x="64" y="0" xlink:href="#p" />
<use x="64" y="32" xlink:href="#p" />
<use x="64" y="48" xlink:href="#p" />
<use x="64" y="64" xlink:href="#p" />
<use x="64" y="96" xlink:href="#p" />
<use x="64" y="128" xlink:href="#p" />
<use x="64" y="144" xlink:href="#p" />
<use x="64" y="160" xlink:href="#p" />
<use x="64" y="176" xlink:href="#p" />
<use x="64" y="192" xlink:href="#p" />
<use x="64" y="208" xlink:href="#p" />
<use x="64" y="224" xlink:href="#p" />
<use x="64" y="240" xlink:href="#p" />
<use x="64" y="256" xlink:href="#p" />
<use x="64" y="272" xlink:href="#p" />
<use x="64" y="304" xlink:href="#p" />
<use x="64" y="320" xlink:href="#p" />
<use x="64" y="352" xlink:href="#p" />
<use x="64" y="416" xlink:href="#p" />
<use x="64" y="448" xlink:href="#p" />
<use x="64" y="480" xlink:href="#p" />
<use x="64" y="512" xlink:href="#p" />
<use x="64" y="528" xlink:href="#p" />
<use x="64" y="544" xlink:href="#p" />
<use x="64" y="576" xlink:href="#p" />
<use x="80" y="0" xlink:href="#p" />
<use x="80" y="96" xlink:href="#p" />
<use x="80" y="128" xlink:href="#p" />
<use x="80" y="176" xlink:href="#p" />
<use x="80" y="224" xlink:href="#p" />
<use x="80" y="272" xlink:href="#p" />
<use x="80" y="304" xlink:href="#p" />
<use x="80" y="352" xlink:href="#p" />
<use x="80" y="384" xlink:href="#p" />
<use x="80" y="448" xlink:href="#p" />
<use x="80" y="480" xlink:href="#p" />
<use x="80" y="576" xlink:href="#p" />
<use x="96" y="0" xlink:href="#p" />
<use x="96" y="16" xlink:href="#p" />
<use x="96" y="32" xlink:href="#p" />
<use x="96" y="48" xlink:href="#p" />
<use x="96" y="64" xlink:href="#p" />
<use x="96" y="80" xlink:href="#p" />
<use x="96" y="96" xlink:href="#p" />
<use x="96" y="128" xlink:href="#p" />
<use x="96" y="160" xlink:href="#p" />
<use x="96" y="192" xlink:href="#p" />
<use x="96" y="224" xlink:href="#p" />
<use x="96" y="256" xlink:href="#p" />
<use x="96" y="288" xlink:href="#p" />
<use x="96" y="320" xlink:href="#p" />
<use x="96" y="352" xlink:href="#p" />
<use x="96" y="384" xlink:href="#p" />
<use x="96" y="416" xlink:href="#p" />
<use x="96" y="448" xlink:href="#p" />
<use x="96" y="480" xlink:href="#p" />
<use x="96" y="496" xlink:href="#p" />
<use x="96" y="512" xlink:href="#p" />
<use x="96" y="528" xlink:href="#p" />
<use x="96" y="544" xlink:href="#p" />
<use x="96" y="560" xlink:href="#p" />
<use x="96" y="576" xlink:href="#p" />
<use x="112" y="128" xlink:href="#p" />
<use x="112" y="176" xlink:href="#p" />
<use x="112" y="208" xlink:href="#p" />
<use x="112" y="240" xlink:href="#p" />
<use x="112" y="256" xlink:href="#p" />
<use x="112" y="288" xlink:href="#p" />
<use x="112" y="304" xlink:href="#p" />
<use x="112" y="320" xlink:href="#p" />
<use x="112" y="352" xlink:href="#p" />
<use x="112" y="384" xlink:href="#p" />
<use x="112" y="448" xlink:href="#p" />
<use x="128" y="0" xlink:href="#p" />
<use x="128" y="16" xlink:href="#p" />
<use x="128" y="32" xlink:href="#p" />
<use x="128" y="64" xlink:href="#p" />
<use x="128" y="96" xlink:href="#p" />
<use x="128" y="128" xlink:href="#p" />
<use x="128" y="160" xlink:href="#p" />
<use x="128" y="208" xlink:href="#p" />
<use x="128" y="240" xlink:href="#p" />
<use x="128" y="256" xlink:href="#p" />
<use x="128" y="272" xlink:href="#p" />
<use x="128" y="288" xlink:href="#p" />
<use x="128" y="320" xlink:href="#p" />
<use x="128" y="368" xlink:href="#p" />
<use x="128" y="416" xlink:href="#p" />
<use x="128" y="432" xlink:href="#p" />
<use x="128" y="448" xlink:href="#p" />
<use x="128" y="464" xlink:href="#p" />
<use x="128" y="480" xlink:href="#p" />
<use x="128" y="496" xlink:href="#p" />
<use x="128" y="512" xlink:href="#p" />
<use x="128" y="528" xlink:href="#p" />
<use x="128" y="576" xlink:href="#p" />
<use x="144" y="0" xlink:href="#p" />
<use x="144" y="112" xlink:href="#p" />
<use x="144" y="128" xlink:href="#p" />
<use x="144" y="160" xlink:href="#p" />
<use x="144" y="176" xlink:href="#p" />
<use x="144" y="208" xlink:href="#p" />
<use x="144" y="240" xlink:href="#p" />
<use x="144" y="288" xlink:href="#p" />
<use x="144" y="320" xlink:href="#p" />
<use x="144" y="336" xlink:href="#p" />
<use x="144" y="352" xlink:href="#p" />
<use x="144" y="384" xlink:href="#p" />
<use x="144" y="400" xlink:href="#p" />
<use x="144" y="416" xlink:href="#p" />
<use x="144" y="432" xlink:href="#p" />
<use x="144" y="480" xlink:href="#p" />
<use x="144" y="496" xlink:href="#p" />
<use x="144" y="528" xlink:href="#p" />
<use x="144" y="544" xlink:href="#p" />
<use x="144" y="560" xlink:href="#p" />
<use x="144" y="576" xlink:href="#p" />
<use x="160" y="0" xlink:href="#p" />
<use x="160" y="64" xlink:href="#p" />
<use x="160" y="96" xlink:href="#p" />
<use x="160" y="112" xlink:href="#p" />
<use x="160" y="128" xlink:href="#p" />
<use x="160" y="192" xlink:href="#p" />
<use x="160" y="208" xlink:href="#p" />
<use x="160" y="256" xlink:href="#p" />
<use x="160" y="304" xlink:href="#p" />
<use x="160" y="320" xlink:href="#p" />
<use x="160" y="336" xlink:href="#p" />
<use x="160" y="352" xlink:href="#p" />
<use x="160" y="384" xlink:href="#p" />
<use x="160" y="400" xlink:href="#p" />
<use x="160" y="464" xlink:href="#p" />
<use x="160" y="480" xlink:href="#p" />
<use x="160" y="528" xlink:href="#p" />
<use x="160" y="544" xlink:href="#p" />
<use x="160" y="560" xlink:href="#p" />
<use x="176" y="0" xlink:href="#p" />
<use x="176" y="16" xlink:href="#p" />
<use x="176" y="48" xlink:href="#p" />
<use x="176" y="80" xlink:href="#p" />
<use x="176" y="128" xlink:href="#p" />
<use x="176" y="160" xlink:href="#p" />
<use x="176" y="176" xlink:href="#p" />
<use x="176" y="208" xlink:href="#p" />
<use x="176" y="224" xlink:href="#p" />
<use x="176" y="304" xlink:href="#p" />
<use x="176" y="336" xlink:href="#p" />
<use x="176" y="368" xlink:href="#p" />
<use x="176" y="400" xlink:href="#p" />
<use x="176" y="432" xlink:href="#p" />
<use x="176" y="448" xlink:href="#p" />
<use x="176" y="480" xlink:href="#p" />
<use x="176" y="512" xlink:href="#p" />
<use x="176" y="528" xlink:href="#p" />
<use x="176" y="560" xlink:href="#p" />
<use x="176" y="576" xlink:href="#p" />
<use x="192" y="64" xlink:href="#p" />
<use x="192" y="96" xlink:href="#p" />
<use x="192" y="112" xlink:href="#p" />
<use x="192" y="128" xlink:href="#p" />
<use x="192" y="144" xlink:href="#p" />
<use x="192" y="160" xlink:href="#p" />
<use x="192" y="176" xlink:href="#p" />
<use x="192" y="192" xlink:href="#p" />
<use x="192" y="208" xlink:href="#p" />
<use x="192" y="240" xlink:href="#p" />
<use x="192" y="256" xlink:href="#p" />
<use x="192" y="272" xlink:href="#p" />
<use x="192" y="320" xlink:href="#p" />
<use x="192" y="368" xlink:href="#p" />
<use x="192" y="384" xlink:href="#p" />
<use x="192" y="400" xlink:href="#p" />
<use x="192" y="416" xlink:href="#p" />
<use x="192" y="432" xlink:href="#p" />
<use x="192" y="496" xlink:href="#p" />
<use x="192" y="528" xlink:href="#p" />
<use x="192" y="544" xlink:href="#p" />
<use x="192" y="560" xlink:href="#p" />
<use x="208" y="0" xlink:href="#p" />
<use x="208" y="16" xlink:href="#p" />
<use x="208" y="32" xlink:href="#p" />
<use x="208" y="48" xlink:href="#p" />
<use x="208" y="80" xlink:href="#p" />
<use x="208" y="112" xlink:href="#p" />
<use x="208" y="144" xlink:href="#p" />
<use x="208" y="160" xlink:href="#p" />
<use x="208" y="192" xlink:href="#p" />
<use x="208" y="208" xlink:href="#p" />
<use x="208" y="224" xlink:href="#p" />
<use x="208" y="240" xlink:href="#p" />
<use x="208" y="288" xlink:href="#p" />
<use x="208" y="304" xlink:href="#p" />
<use x="208" y="320" xlink:href="#p" />
<use x="208" y="336" xlink:href="#p" />
<use x="208" y="368" xlink:href="#p" />
<use x="208" y="384" xlink:href="#p" />
<use x="208" y="400" xlink:href="#p" />
<use x="208" y="416" xlink:href="#p" />
<use x="208" y="448" xlink:href="#p" />
<use x="208" y="480" xlink:href="#p" />
<use x="208" y="544" xlink:href="#p" />
<use x="208" y="560" xlink:href="#p" />
<use x="224" y="32" xlink:href="#p" />
<use x="224" y="48" xlink:href="#p" />
<use x="224" y="96" xlink:href="#p" />
<use x="224" y="128" xlink:href="#p" />
<use x="224" y="144" xlink:href="#p" />
<use x="224" y="240" xlink:href="#p" />
<use x="224" y="256" xlink:href="#p" />
<use x="224" y="336" xlink:href="#p" />
<use x="224" y="352" xlink:href="#p" />
<use x="224" y="384" xlink:href="#p" />
<use x="224" y="400" xlink:href="#p" />
<use x="224" y="416" xlink:href="#p" />
<use x="224" y="480" xlink:href="#p" />
<use x="224" y="512" xlink:href="#p" />
<use x="224" y="528" xlink:href="#p" />
<use x="224" y="544" xlink:href="#p" />
<use x="224" y="576" xlink:href="#p" />
<use x="240" y="0" xlink:href="#p" />
<use x="240" y="16" xlink:href="#p" />
<use x="240" y="64" xlink:href="#p" />
<use x="240" y="80" xlink:href="#p" />
<use x="240" y="112" xlink:href="#p" />
<use x="240" y="128" xlink:href="#p" />
<use x="240" y="176" xlink:href="#p" />
<use x="240" y="224" xlink:href="#p" />
<use x="240" y="288" xlink:href="#p" />
<use x="240" y="304" xlink:href="#p" />
<use x="240" y="352" xlink:href="#p" />
<use x="240" y="416" xlink:href="#p" />
<use x="240" y="448" xlink:href="#p" />
<use x="240" y="464" xlink:href="#p" />
<use x="240" y="480" xlink:href="#p" />
<use x="240" y="496" xlink:href="#p" />
<use x="240" y="512" xlink:href="#p" />
<use x="240" y="544" xlink:href="#p" />
<use x="240" y="576" xlink:href="#p" />
<use x="256" y="0" xlink:href="#p" />
<use x="256" y="32" xlink:href="#p" />
<use x="256" y="48" xlink:href="#p" />
<use x="256" y="80" xlink:href="#p" />
<use x="256" y="96" xlink:href="#p" />
<use x="256" y="112" xlink:href="#p" />
<use x="256" y="128" xlink:href="#p" />
<use x="256" y="208" xlink:href="#p" />
<use x="256" y="224" xlink:href="#p" />
<use x="256" y="240" xlink:href="#p" />
<use x="256" y="272" xlink:href="#p" />
<use x="256" y="304" xlink:href="#p" />
<use x="256" y="320" xlink:href="#p" />
<use x="256" y="352" xlink:href="#p" />
<use x="256" y="368" xlink:href="#p" />
<use x="256" y="384" xlink:href="#p" />
<use x="256" y="400" xlink:href="#p" />
<use x="256" y="448" xlink:href="#p" />
<use x="256" y="464" xlink:href="#p" />
<use x="256" y="480" xlink:href="#p" />
<use x="256" y="512" xlink:href="#p" />
<use x="256" y="544" xlink:href="#p" />
<use x="256" y="560" xlink:href="#p" />
<use x="256" y="576" xlink:href="#p" />
<use x="272" y="0" xlink:href="#p" />
<use x="272" y="16" xlink:href="#p" />
<use x="272" y="64" xlink:href="#p" />
<use x="272" y="80" xlink:href="#p" />
<use x="272" y="144" xlink:href="#p" />
<use x="272" y="176" xlink:href="#p" />
<use x="272" y="192" xlink:href="#p" />
<use x="272" y="272" xlink:href="#p" />
<use x="272" y="352" xlink:href="#p" />
<use x="272" y="368" xlink:href="#p" />
<use x="272" y="400" xlink:href="#p" />
<use x="272" y="464" xlink:href="#p" />
<use x="272" y="544" xlink:href="#p" />
<use x="272" y="560" xlink:href="#p" />
<use x="272" y="576" xlink:href="#p" />
<use x="288" y="32" xlink:href="#p" />
<use x="288" y="80" xlink:href="#p" />
<use x="288" y="96" xlink:href="#p" />
<use x="288" y="112" xlink:href="#p" />
<use x="288" y="144" xlink:href="#p" />
<use x="288" y="240" xlink:href="#p" />
<use x="288" y="304" xlink:href="#p" />
<use x="288" y="336" xlink:href="#p" />
<use x="288" y="400" xlink:href="#p" />
<use x="288" y="432" xlink:href="#p" />
<use x="288" y="496" xlink:href="#p" />
<use x="288" y="528" xlink:href="#p" />
<use x="288" y="560" xlink:href="#p" />
<use x="304" y="16" xlink:href="#p" />
<use x="304" y="32" xlink:href="#p" />
<use x="304" y="48" xlink:href="#p" />
<use x="304" y="64" xlink:href="#p" />
<use x="304" y="128" xlink:href="#p" />
<use x="304" y="144" xlink:href="#p" />
<use x="304" y="176" xlink:href="#p" />
<use x="304" y="192" xlink:href="#p" />
<use x="304" y="224" xlink:href="#p" />
<use x="304" y="256" xlink:href="#p" />
<use x="304" y="272" xlink:href="#p" />
<use x="304" y="288" xlink:href="#p" />
<use x="304" y="304" xlink:href="#p" />
<use x="304" y="320" xlink:href="#p" />
<use x="304" y="336" xlink:href="#p" />
<use x="304" y="368" xlink:href="#p" />
<use x="304" y="384" xlink:href="#p" />
<use x="304" y="416" xlink:href="#p" />
<use x="304" y="448" xlink:href="#p" />
<use x="304" y="464" xlink:href="#p" />
<use x="304" y="480" xlink:href="#p" />
<use x="304" y="560" xlink:href="#p" />
<use x="304" y="576" xlink:href="#p" />
<use x="320" y="0" xlink:href="#p" />
<use x="320" y="48" xlink:href="#p" />
<use x="320" y="80" xlink:href="#p" />
<use x="320" y="96" xlink:href="#p" />
<use x="320" y="160" xlink:href="#p" />
<use x="320" y="224" xlink:href="#p" />
<use x="320" y="288" xlink:href="#p" />
<use x="320" y="304" xlink:href="#p" />
<use x="320" y="320" xlink:href="#p" />
<use x="320" y="336" xlink:href="#p" />
<use x="320" y="352" xlink:href="#p" />
<use x="320" y="368" xlink:href="#p" />
<use x="320" y="400" xlink:href="#p" />
<use x="320" y="416" xlink:href="#p" />
<use x="320" y="432" xlink:href="#p" />
<use x="320" y="464" xlink:href="#p" />
<use x="320" y="544" xlink:href="#p" />
<use x="320" y="560" xlink:href="#p" />
<use x="336" y="0" xlink:href="#p" />
<use x="336" y="16" xlink:href="#p" />
<use x="336" y="32" xlink:href="#p" />
<use x="336" y="48" xlink:href="#p" />
<use x="336" y="80" xlink:href="#p" />
<use x="336" y="160" xlink:href="#p" />
<use x="336" y="224" xlink:href="#p" />
<use x="336" y="256" xlink:href="#p" />
<use x="336" y="288" xlink:href="#p" />
<use x="336" y="352" xlink:href="#p" />
<use x="336" y="384" xlink:href="#p" />
<use x="336" y="480" xlink:href="#p" />
<use x="336" y="512" xlink:href="#p" />
<use x="336" y="528" xlink:href="#p" />
<use x="336" y="544" xlink:href="#p" />
<use x="352" y="0" xlink:href="#p" />
<use x="352" y="16" xlink:href="#p" />
<use x="352" y="80" xlink:href="#p" />
<use x="352" y="96" xlink:href="#p" />
<use x="352" y="144" xlink:href="#p" />
<use x="352" y="208" xlink:href="#p" />
<use x="352" y="224" xlink:href="#p" />
<use x="352" y="256" xlink:href="#p" />
<use x="352" y="336" xlink:href="#p" />
<use x="352" y="352" xlink:href="#p" />
<use x="352" y="368" xlink:href="#p" />
<use x="352" y="416" xlink:href="#p" />
<use x="352" y="448" xlink:href="#p" />
<use x="352" y="464" xlink:href="#p" />
<use x="352" y="496" xlink:href="#p" />
<use x="352" y="560" xlink:href="#p" />
<use x="352" y="576" xlink:href="#p" />
<use x="368" y="0" xlink:href="#p" />
<use x="368" y="48" xlink:href="#p" />
<use x="368" y="80" xlink:href="#p" />
<use x="368" y="112" xlink:href="#p" />
<use x="368" y="128" xlink:href="#p" />
<use x="368" y="144" xlink:href="#p" />
<use x="368" y="160" xlink:href="#p" />
<use x="368" y="208" xlink:href="#p" />
<use x="368" y="272" xlink:href="#p" />
<use x="368" y="288" xlink:href="#p" />
<use x="368" y="304" xlink:href="#p" />
<use x="368" y="320" xlink:href="#p" />
<use x="368" y="336" xlink:href="#p" />
<use x="368" y="352" xlink:href="#p" />
<use x="368" y="432" xlink:href="#p" />
<use x="368" y="448" xlink:href="#p" />
<use x="368" y="480" xlink:href="#p" />
<use x="368" y="496" xlink:href="#p" />
<use x="368" y="528" xlink:href="#p" />
<use x="368" y="544" xlink:href="#p" />
<use x="368" y="576" xlink:href="#p" />
<use x="384" y="32" xlink:href="#p" />
<use x="384" y="96" xlink:href="#p" />
<use x="384" y="160" xlink:href="#p" />
<use x="384" y="176" xlink:href="#p" />
<use x="384" y="192" xlink:href="#p" />
<use x="384" y="208" xlink:href="#p" />
<use x="384" y="304" xlink:href="#p" />
<use x="384" y="320" xlink:href="#p" />
<use x="384" y="384" xlink:href="#p" />
<use x="384" y="432" xlink:href="#p" />
<use x="384" y="448" xlink:href="#p" />
<use x="384" y="496" xlink:href="#p" />
<use x="384" y="512" xlink:href="#p" />
<use x="384" y="544" xlink:href="#p" />
<use x="384" y="576" xlink:href="#p" />
<use x="400" y="0" xlink:href="#p" />
<use x="400" y="16" xlink:href="#p" />
<use x="400" y="32" xlink:href="#p" />
<use x="400" y="48" xlink:href="#p" />
<use x="400" y="112" xlink:href="#p" />
<use x="400" y="256" xlink:href="#p" />
<use x="400" y="304" xlink:href="#p" />
<use x="400" y="352" xlink:href="#p" />
<use x="400" y="400" xlink:href="#p" />
<use x="400" y="416" xlink:href="#p" />
<use x="400" y="448" xlink:href="#p" />
<use x="400" y="496" xlink:href="#p" />
<use x="400" y="528" xlink:href="#p" />
<use x="400" y="544" xlink:href="#p" />
<use x="416" y="96" xlink:href="#p" />
<use x="416" y="112" xlink:href="#p" />
<use x="416" y="128" xlink:href="#p" />
<use x="416" y="144" xlink:href="#p" />
<use x="416" y="176" xlink:href="#p" />
<use x="416" y="208" xlink:href="#p" />
<use x="416" y="224" xlink:href="#p" />
<use x="416" y="256" xlink:href="#p" />
<use x="416" y="272" xlink:href="#p" />
<use x="416" y="288" xlink:href="#p" />
<use x="416" y="304" xlink:href="#p" />
<use x="416" y="320" xlink:href="#p" />
<use x="416" y="336" xlink:href="#p" />
<use x="416" y="352" xlink:href="#p" />
<use x="416" y="400" xlink:href="#p" />
<use x="416" y="416" xlink:href="#p" />
<use x="416" y="448" xlink:href="#p" />
<use x="416" y="480" xlink:href="#p" />
<use x="416" y="496" xlink:href="#p" />
<use x="416" y="512" xlink:href="#p" />
<use x="432" y="0" xlink:href="#p" />
<use x="432" y="48" xlink:href="#p" />
<use x="432" y="128" xlink:href="#p" />
<use x="432" y="144" xlink:href="#p" />
<use x="432" y="160" xlink:href="#p" />
<use x="432" y="192" xlink:href="#p" />
<use x="432" y="208" xlink:href="#p" />
<use x="432" y="224" xlink:href="#p" />
<use x="432" y="240" xlink:href="#p" />
<use x="432" y="272" xlink:href="#p" />
<use x="432" y="288" xlink:href="#p" />
<use x="432" y="320" xlink:href="#p" />
<use x="432" y="336" xlink:href="#p" />
<use x="432" y="352" xlink:href="#p" />
<use x="432" y="400" xlink:href="#p" />
<use x="432" y="416" xlink:href="#p" />
<use x="432" y="464" xlink:href="#p" />
<use x="432" y="496" xlink:href="#p" />
<use x="432" y="512" xlink:href="#p" />
<use x="448" y="32" xlink:href="#p" />
<use x="448" y="64" xlink:href="#p" />
<use x="448" y="96" xlink:href="#p" />
<use x="448" y="112" xlink:href="#p" />
<use x="448" y="128" xlink:href="#p" />
<use x="448" y="208" xlink:href="#p" />
<use x="448" y="256" xlink:href="#p" />
<use x="448" y="272" xlink:href="#p" />
<use x="448" y="304" xlink:href="#p" />
<use x="448" y="320" xlink:href="#p" />
<use x="448" y="352" xlink:href="#p" />
<use x="448" y="368" xlink:href="#p" />
<use x="448" y="400" xlink:href="#p" />
<use x="448" y="416" xlink:href="#p" />
<use x="448" y="448" xlink:href="#p" />
<use x="448" y="464" xlink:href="#p" />
<use x="448" y="480" xlink:href="#p" />
<use x="448" y="496" xlink:href="#p" />
<use x="448" y="512" xlink:href="#p" />
<use x="448" y="544" xlink:href="#p" />
<use x="448" y="576" xlink:href="#p" />
<use x="464" y="128" xlink:href="#p" />
<use x="464" y="144" xlink:href="#p" />
<use x="464" y="208" xlink:href="#p" />
<use x="464" y="224" xlink:href="#p" />
<use x="464" y="272" xlink:href="#p" />
<use x="464" y="304" xlink:href="#p" />
<use x="464" y="320" xlink:href="#p" />
<use x="464" y="336" xlink:href="#p" />
<use x="464" y="400" xlink:href="#p" />
<use x="464" y="416" xlink:href="#p" />
<use x="464" y="432" xlink:href="#p" />
<use x="464" y="448" xlink:href="#p" />
<use x="464" y="512" xlink:href="#p" />
<use x="464" y="544" xlink:href="#p" />
<use x="464" y="560" xlink:href="#p" />
<use x="480" y="0" xlink:href="#p" />
<use x="480" y="16" xlink:href="#p" />
<use x="480" y="32" xlink:href="#p" />
<use x="480" y="48" xlink:href="#p" />
<use x="480" y="64" xlink:href="#p" />
<use x="480" y="80" xlink:href="#p" />
<use x="480" y="96" xlink:href="#p" />
<use x="480" y="160" xlink:href="#p" />
<use x="480" y="192" xlink:href="#p" />
<use x="480" y="224" xlink:href="#p" />
<use x="480" y="240" xlink:href="#p" />
<use x="480" y="256" xlink:href="#p" />
<use x="480" y="272" xlink:href="#p" />
<use x="480" y="288" xlink:href="#p" />
<use x="480" y="320" xlink:href="#p" />
<use x="480" y="384" xlink:href="#p" />
<use x="480" y="416" xlink:href="#p" />
<use x="480" y="448" xlink:href="#p" />
<use x="480" y="480" xlink:href="#p" />
<use x="480" y="512" xlink:href="#p" />
<use x="480" y="528" xlink:href="#p" />
<use x="480" y="560" xlink:href="#p" />
<use x="480" y="576" xlink:href="#p" />
<use x="496" y="0" xlink:href="#p" />
<use x="496" y="96" xlink:href="#p" />
<use x="496" y="144" xlink:href="#p" />
<use x="496" y="176" xlink:href="#p" />
<use x="496" y="240" xlink:href="#p" />
<use x="496" y="272" xlink:href="#p" />
<use x="496" y="288" xlink:href="#p" />
<use x="496" y="304" xlink:href="#p" />
<use x="496" y="320" xlink:href="#p" />
<use x="496" y="352" xlink:href="#p" />
<use x="496" y="368" xlink:href="#p" />
<use x="496" y="432" xlink:href="#p" />
<use x="496" y="448" xlink:href="#p" />
<use x="496" y="512" xlink:href="#p" />
<use x="496" y="576" xlink:href="#p" />
<use x="512" y="0" xlink:href="#p" />
<use x="512" y="32" xlink:href="#p" />
<use x="512" y="48" xlink:href="#p" />
<use x="512" y="64" xlink:href="#p" />
<use x="512" y="96" xlink:href="#p" />
<use x="512" y="128" xlink:href="#p" />
<use x="512" y="144" xlink:href="#p" />
<use x="512" y="160" xlink:href="#p" />
<use x="512" y="176" xlink:href="#p" />
<use x="512" y="208" xlink:href="#p" />
<use x="512" y="224" xlink:href="#p" />
<use x="512" y="256" xlink:href="#p" />
<use x="512" y="288" xlink:href="#p" />
<use x="512" y="304" xlink:href="#p" />
<use x="512" y="320" xlink:href="#p" />
<use x="512" y="336" xlink:href="#p" />
<use x="512" y="368" xlink:href="#p" />
<use x="512" y="384" xlink:href="#p" />
<use x="512" y="400" xlink:href="#p" />
<use x="512" y="448" xlink:href="#p" />
<use x="512" y="464" xlink:href="#p" />
<use x="512" y="480" xlink:href="#p" />
<use x="512" y="496" xlink:href="#p" />
<use x="512" y="512" xlink:href="#p" />
<use x="512" y="544" xlink:href="#p" />
<use x="512" y="560" xlink:href="#p" />
<use x="528" y="0" xlink:href="#p" />
<use x="528" y="32" xlink:href="#p" />
<use x="528" y="48" xlink:href="#p" />
<use x="528" y="64" xlink:href="#p" />
<use x="528" y="96" xlink:href="#p" />
<use x="528" y="144" xlink:href="#p" />
<use x="528" y="160" xlink:href="#p" />
<use x="528" y="176" xlink:href="#p" />
<use x="528" y="192" xlink:href="#p" />
<use x="528" y="208" xlink:href="#p" />
<use x="528" y="224" xlink:href="#p" />
<use x="528" y="240" xlink:href="#p" />
<use x="528" y="304" xlink:href="#p" />
<use x="528" y="352" xlink:href="#p" />
<use x="528" y="368" xlink:href="#p" />
<use x="528" y="432" xlink:href="#p" />
<use x="528" y="528" xlink:href="#p" />
<use x="528" y="544" xlink:href="#p" />
<use x="544" y="0" xlink:href="#p" />
<use x="544" y="32" xlink:href="#p" />
<use x="544" y="48" xlink:href="#p" />
<use x="544" y="64" xlink:href="#p" />
<use x="544" y="96" xlink:href="#p" />
<use x="544" y="128" xlink:href="#p" />
<use x="544" y="176" xlink:href="#p" />
<use x="544" y="224" xlink:href="#p" />
<use x="544" y="240" xlink:href="#p" />
<use x="544" y="256" xlink:href="#p" />
<use x="544" y="288" xlink:href="#p" />
<use x="544" y="336" xlink:href="#p" />
<use x="544" y="368" xlink:href="#p" />
<use x="544" y="432" xlink:href="#p" />
<use x="544" y="448" xlink:href="#p" />
<use x="544" y="464" xlink:href="#p" />
<use x="544" y="528" xlink:href="#p" />
<use x="544" y="560" xlink:href="#p" />
<use x="560" y="0" xlink:href="#p" />
<use x="560" y="96" xlink:href="#p" />
<use x="560" y="128" xlink:href="#p" />
<use x="560" y="144" xlink:href="#p" />
<use x="560" y="176" xlink:href="#p" />
<use x="560" y="224" xlink:href="#p" />
<use x="560" y="352" xlink:href="#p" />
<use x="560" y="368" xlink:href="#p" />
<use x="560" y="384" xlink:href="#p" />
<use x="560" y="416" xlink:href="#p" />
<use x="560" y="432" xlink:href="#p" />
<use x="560" y="448" xlink:href="#p" />
<use x="560" y="480" xlink:href="#p" />
<use x="560" y="528" xlink:href="#p" />
<use x="560" y="560" xlink:href="#p" />
<use x="576" y="0" xlink:href="#p" />
<use x="576" y="16" xlink:href="#p" />
<use x="576" y="32" xlink:href="#p" />
<use x="576" y="48" xlink:href="#p" />
<use x="576" y="64" xlink:href="#p" />
<use x="576" y="80" xlink:href="#p" />
<use x="576" y="96" xlink:href="#p" />
<use x="576" y="128" xlink:href="#p" />
<use x="576" y="160" xlink:href="#p" />
<use x="576" y="176" xlink:href="#p" />
<use x="576" y="192" xlink:href="#p" />
<use x="576" y="224" xlink:href="#p" />
<use x="576" y="256" xlink:href="#p" />
<use x="576" y="288" xlink:href="#p" />
<use x="576" y="304" xlink:href="#p" />
<use x="576" y="352" xlink:href="#p" />
<use x="576" y="368" xlink:href="#p" />
<use x="576" y="384" xlink:href="#p" />
<use x="576" y="416" xlink:href="#p" />
<use x="576" y="448" xlink:href="#p" />
<use x="576" y="480" xlink:href="#p" />
<use x="576" y="528" xlink:href="#p" />
<use x="576" y="544" xlink:href="#p" />
<use x="576" y="560" xlink:href="#p" />
<use x="576" y="576" xlink:href="#p" />
</g>
</svg>